# AST/ASF file generated using VICON BodyLanguage
# -----------------------------------------------
:version 1.10
:name VICON
:units
  mass 1.0
  length 0.45
  angle deg
:documentation
   .ast/.asf automatically generated from VICON data using
   VICON BodyBuilder and BodyLanguage model FoxedUp or BRILLIANT.MOD
:root
   order TX TY TZ RX RY RZ
   axis XYZ
   position 0 0 0  
   orientation 0 0 0 
:bonedata
  begin
     id 1 
     name lhipjoint
     direction 0.621036 -0.695554 0.361275 
     length 2.46325 
     axis 0 0 0  XYZ
  end
  begin
     id 2 
     name lfemur
     direction 0.34202 -0.939693 0  
     length 6.54784  
     axis 0 0 20  XYZ
    dof rx ry rz
    limits (-160.0 20.0)
           (-70.0 70.0)
           (-60.0 70.0)
  end
  begin
     id 3 
     name ltibia
     direction 0.34202 -0.939693 0   
     length 7.84737   
     axis 0 0 20   XYZ
    dof rx
    limits (-10.0 170.0)
  end
  begin
     id 4 
     name lfoot
     direction 0.0790693 -0.217241 0.97291   
     length 2.59747   
     axis -90 7.62852e-016 20   XYZ
    dof rx rz
    limits (-45.0 90.0)
           (-70.0 20.0)
  end
  begin
     id 5 
     name ltoes
     direction 1.53572e-011 -4.21898e-011 1   
     length 1.29919   
     axis -90 7.62852e-016 20   XYZ
    dof rx
    limits (-90.0 20.0)
  end
  begin
     id 6 
     name rhipjoint
     direction -0.602353 -0.708375 0.367935   
     length 2.41867  
     axis 0 0 0  XYZ 
  end
  begin
     id 7 
     name rfemur
     direction -0.34202 -0.939693 0   
     length 6.92065   
     axis 0 0 -20   XYZ
    dof rx ry rz
    limits (-160.0 20.0)
           (-70.0 70.0)
           (-70.0 60.0)
  end
  begin
     id 8 
     name rtibia
     direction -0.34202 -0.939693 0   
     length 7.88883   
     axis 0 0 -20   XYZ
    dof rx
    limits (-10.0 170.0)
 end
 begin
     id 9 
     name rfoot
     direction -0.0768692 -0.211196 0.974416   
     length 2.43714  
     axis -90 -7.62852e-016 -20   XYZ
    dof rx rz
    limits (-45.0 90.0)
           (-20.0 70.0)
  end
  begin
     id 10 
     name rtoes
     direction -1.53575e-011 -4.21933e-011 1   
     length 1.22113   
     axis -90 -7.62852e-016 -20   XYZ
    dof rx
    limits (-90.0 20.0)
  end
  begin
     id 11 
     name lowerback
     direction 0.0197937 0.98943 -0.143655   
     length 2.16931   
     axis 0 0 0   XYZ
    dof rx ry rz
    limits (-20.0 45.0)
           (-30.0 30.0)
           (-30.0 30.0)
  end
  begin
     id 12 
     name upperback
     direction -0.00183968 0.999975 0.00684288   
     length 2.17221   
     axis 0 0 0   XYZ
    dof rx ry rz
    limits (-20.0 45.0)
           (-30.0 30.0)
           (-30.0 30.0)
  end
  begin
     id 13 
     name thorax
     direction -0.00950244 0.997208 0.0740685   
     length 2.22549   
     axis 0 0 0   XYZ
    dof rx ry rz
    limits (-20.0 45.0)
           (-30.0 30.0)
           (-30.0 30.0)
  end
  begin
     id 14 
     name lowerneck
     direction 0.0218238 0.996215 0.0841425   
     length 1.77269   
     axis 0 0 0   XYZ
    dof rx ry rz
    limits (-20.0 45.0)
           (-30.0 30.0)
           (-30.0 30.0)
  end
  begin
     id 15 
     name upperneck
     direction -0.00430652 0.994214 -0.107332   
     length 1.76534   
     axis 0 0 0   XYZ
    dof rx ry rz
    limits (-20.0 45.0)
           (-30.0 30.0)
           (-30.0 30.0)
  end
  begin
     id 16
     name head
     direction -0.00328946 0.998959 -0.0454998  
     length 1.82634  
     axis 0 0 0   XYZ
    dof rx ry rz
    limits (-20.0 45.0)
           (-30.0 30.0)
           (-30.0 30.0)
  end
  begin
     id 17 
     name lclavicle
     direction 0.970962 0.239191 0.00450212  
     length 3.84872  
     axis 0 0 0   XYZ
    dof ry rz
    limits (-20.0 10.0)
           (0.0 20.0)
  end
  begin
     id 18 
     name lhumerus
     direction 1 -4.48966e-011 5.74696e-028   
     length 5.22771   
     axis 180 -30 -90   XYZ
    dof rx ry rz
    limits (-60.0 90.0)
           (-90.0 90.0)
           (-90.0 90.0)
  end
  begin
     id 19
     name lradius
     direction 1 -4.4896e-011 4.25109e-027   
     length 3.45251   
     axis 180 -30 -90   XYZ
    dof rx
    limits (-10.0 170.0)
  end
  begin
     id 20
     name lwrist
     direction 1 -4.48971e-011 1.15382e-027   
     length 1.72626   
     axis -5.52449e-016 90 90   XYZ
    dof ry
    limits (-180.0 0.0)
 end
  begin
     id 21 
     name lhand
     direction 1 -4.49034e-011 2.30765e-027   
     length 0.552119   
     axis -1.47248e-015 90 90   XYZ
    dof rx rz
    limits (-90.0 90.0)
           (-45.0 45.0)
  end
  begin
     id 22 
     name lfingers
     direction 1 -4.48951e-011 4.61529e-027   
     length 0.445133   
     axis -2.94495e-015 90 90   XYZ
    dof rx
    limits (0.0 90.0)
  end
  begin
     id 23
     name lthumb
     direction 0.707107 -6.34991e-011 0.707107   
     length 0.639124   
     axis -90 45 2.85299e-015   XYZ
    dof rx rz
    limits (-45.0 45.0)
           (-45.0 45.0)
  end
  begin
     id 24 
     name rclavicle
     direction -0.97424 0.222511 -0.0366699   
     length 3.73439  
     axis 0 0 0   XYZ 
    dof ry rz
    limits (-10.0 20.0)
           (-20.0 0.0)
  end
  begin
     id 25 
     name rhumerus
     direction -1 -4.48956e-011 -4.97258e-028  
     length 5.2398   
     axis 180 30 90   XYZ
    dof rx ry rz
    limits (-90.0 60.0)
           (-90.0 90.0)
           (-90.0 90.0)
  end
  begin
     id 26 
     name rradius
     direction -1 -4.4897e-011 -1.72611e-027   
     length 3.48042   
     axis 180 30 90   XYZ
    dof rx
    limits (-10.0 170.0)
  end
  begin
     id 27 
     name rwrist
     direction -1 -4.48976e-011 1.15382e-027   
     length 1.74021   
     axis -5.52449e-016 -90 -90   XYZ
    dof ry
    limits (-180.0 0.0)
  end
  begin
     id 28
     name rhand
     direction -1 -4.48963e-011 2.30765e-027   
     length 0.618713   
     axis -1.47248e-015 -90 -90   XYZ
    dof rx rz
    limits (-90.0 90.0)
           (-45.0 45.0)
  end
  begin
     id 29
     name rfingers
     direction -1 -4.4888e-011 4.61529e-027   
     length 0.498823   
     axis -2.94495e-015 -90 -90   XYZ
    dof rx
    limits (0.0 90.0)
  end
  begin
     id 30
     name rthumb
     direction -0.707107 -6.34968e-011 0.707107   
     length 0.716213   
     axis -90 -45 -2.85299e-015   XYZ
    dof rx rz
    limits (-45.0 45.0)
           (-45.0 45.0)
  end
:hierarchy
  begin
    root lhipjoint rhipjoint lowerback
    lhipjoint lfemur
    lfemur ltibia
    ltibia lfoot
    lfoot ltoes
    rhipjoint rfemur
    rfemur rtibia
    rtibia rfoot
    rfoot rtoes
    lowerback upperback
    upperback thorax
    thorax lowerneck lclavicle rclavicle
    lowerneck upperneck
    upperneck head
    lclavicle lhumerus
    lhumerus lradius
    lradius lwrist
    lwrist lhand lthumb
    lhand lfingers
    rclavicle rhumerus
    rhumerus rradius
    rradius rwrist
    rwrist rhand rthumb
    rhand rfingers
  end

#!OML:ASF G:\JayActor3\Patient Classification 1\Patient 1\Session 5\male.ASF
:FULLY-SPECIFIED
:DEGREES
1
root -34.8022 16.6029 -5.5416 155.743 89.7809 151.992
lowerback 2.89419 -1.51179 -2.32609
upperback 3.68084 -1.95356 -1.08384
thorax 2.19964 -0.986528 0.207706
lowerneck -7.49448 -0.226437 2.2663
upperneck -4.16875 -0.309762 2.3048
head -0.0531339 -0.116525 0.323971
rclavicle 3.76697e-014 1.19271e-014
rhumerus -34.1703 -15.3566 -80.676
rradius 21.651
rwrist 10.2404
rhand -18.339 -4.42179
rfingers 7.12502
rthumb 7.94317 -34.2526
lclavicle 3.76697e-014 1.19271e-014
lhumerus -21.4548 -2.39213 88.6104
lradius 28.779
lwrist 12.3578
lhand -17.8539 13.3327
lfingers 7.12502
lthumb 8.41132 43.1452
rfemur -43.932 7.56261 20.2671
rtibia 32.3085
rfoot -25.4948 -8.94818
rtoes 9.19038
lfemur 18.4072 15.0005 -22.8051
ltibia 6.36111e-015
lfoot -18.0222 1.6367
ltoes -11.2235
2
root -34.6921 16.586 -5.5463 156.55 89.4949 152.763
lowerback 2.79704 -1.5301 -2.36037
upperback 3.74946 -1.97261 -1.0588
thorax 2.32759 -0.998066 0.248424
lowerneck -7.5017 -0.281192 2.26337
upperneck -4.36476 -0.373073 2.27768
head -0.112152 -0.149364 0.315033
rclavicle 2.23633e-014 -1.19271e-015
rhumerus -34.2496 -15.9237 -80.2781
rradius 21.308
rwrist 10.5917
rhand -18.2785 -3.44832
rfingers 7.12502
rthumb 8.00154 -33.2769
lclavicle 2.23633e-014 -1.19271e-015
lhumerus -21.2727 -2.37794 88.822
lradius 28.4293
lwrist 12.0857
lhand -17.7832 13.3903
lfingers 7.12502
lthumb 8.47956 43.2
rfemur -43.9791 7.83036 19.8291
rtibia 31.6049
rfoot -25.2175 -9.31204
rtoes 7.21398
lfemur 18.7425 14.7342 -22.8744
ltibia 8.90555e-014
lfoot -17.9585 1.69096
ltoes -11.5604
3
root -34.5792 16.5704 -5.55011 158.01 89.218 154.172
lowerback 2.83298 -1.55208 -2.35255
upperback 3.68731 -2.00594 -1.05063
thorax 2.24396 -1.01419 0.254902
lowerneck -7.35699 -0.320718 2.29769
upperneck -4.57066 -0.414949 2.2685
head -0.198514 -0.173802 0.306165
rclavicle -1.0635e-014 -1.59028e-015
rhumerus -34.5491 -16.0416 -80.1336
rradius 21.2518
rwrist 10.677
rhand -18.3028 -4.01123
rfingers 7.12502
rthumb 7.9781 -33.8407
lclavicle -1.0635e-014 -1.59028e-015
lhumerus -21.3017 -2.24812 88.9669
lradius 28.0283
lwrist 11.7076
lhand -17.5719 12.9052
lfingers 7.12502
lthumb 8.68345 42.7066
rfemur -44.0858 7.96298 19.5044
rtibia 31.142
rfoot -24.88 -9.88263
rtoes 4.63499
lfemur 19.1064 14.467 -22.9182
ltibia -6.04305e-014
lfoot -17.9493 1.77127
ltoes -12.2025
4
root -34.459 16.556 -5.55293 160.134 88.9222 156.261
lowerback 2.77187 -1.58638 -2.35462
upperback 3.6885 -2.05098 -1.00528
thorax 2.2822 -1.03794 0.300901
lowerneck -7.31378 -0.369025 2.24734
upperneck -4.66333 -0.469693 2.29385
head -0.233365 -0.201413 0.321074
rclavicle 1.07344e-014 -2.38542e-015
rhumerus -34.7362 -16.2093 -79.9371
rradius 21.124
rwrist 10.8215
rhand -18.24 -4.35706
rfingers 7.12502
rthumb 8.0387 -34.1842
lclavicle 1.07344e-014 -2.38542e-015
lhumerus -21.2613 -2.00991 89.1315
lradius 27.5208
lwrist 11.3401
lhand -17.6925 12.7607
lfingers 7.12502
lthumb 8.56711 42.5669
rfemur -43.9479 7.91251 19.3021
rtibia 30.6995
rfoot -24.4324 -10.4011
rtoes 2.84894
lfemur 19.5115 14.1664 -22.9189
ltibia -6.36111e-015
lfoot -17.8289 1.76716
ltoes -12.8044
5
root -34.3406 16.54 -5.55565 161.347 88.6565 157.426
lowerback 2.73379 -1.61025 -2.33561
upperback 3.66274 -2.08363 -0.971636
thorax 2.27819 -1.05455 0.324284
lowerneck -7.22858 -0.414015 2.24119
upperneck -4.79342 -0.520883 2.29593
head -0.286509 -0.228719 0.322048
rclavicle 8.84592e-015 2.78299e-015
rhumerus -34.9627 -16.4529 -79.7088
rradius 20.9747
rwrist 11.0164
rhand -18.1968 -4.54041
rfingers 7.12502
rthumb 8.08039 -34.3659
lclavicle 8.84592e-015 2.78299e-015
lhumerus -21.2586 -1.78281 89.2728
lradius 27.0714
lwrist 10.9776
lhand -17.6313 12.6062
lfingers 7.12502
lthumb 8.62611 42.41
rfemur -43.9241 7.96784 19.0571
rtibia 30.3661
rfoot -24.0806 -10.8309
rtoes 1.15951
lfemur 19.8951 13.8938 -22.9141
ltibia -7.63333e-014
lfoot -17.7264 1.77494
ltoes -13.3551
6
root -34.2193 16.5242 -5.55762 162.553 88.4063 158.58
lowerback 2.6958 -1.63025 -2.30053
upperback 3.62028 -2.11192 -0.935567
thorax 2.25624 -1.0686 0.341485
lowerneck -7.13404 -0.459772 2.24043
upperneck -4.90096 -0.574495 2.29768
head -0.334189 -0.257319 0.322093
rclavicle 3.28989e-014 -1.59028e-015
rhumerus -35.2114 -16.6958 -79.4804
rradius 20.8334
rwrist 11.2193
rhand -18.1613 -4.73054
rfingers 7.12502
rthumb 8.11465 -34.5547
lclavicle 3.28989e-014 -1.59028e-015
lhumerus -21.294 -1.49813 89.3918
lradius 26.6117
lwrist 10.6009
lhand -17.5591 12.5222
lfingers 7.12502
lthumb 8.69578 42.3231
rfemur -43.8771 7.99981 18.8534
rtibia 30.1568
rfoot -23.7252 -11.2259
rtoes -0.209639
lfemur 20.2838 13.629 -22.886
ltibia 1.04958e-013
lfoot -17.5867 1.76957
ltoes -13.9542
7
root -34.0949 16.5088 -5.55885 163.612 88.1676 159.581
lowerback 2.64514 -1.64925 -2.25927
upperback 3.57403 -2.13882 -0.894749
thorax 2.2374 -1.08199 0.359761
lowerneck -7.06102 -0.505326 2.23596
upperneck -4.9753 -0.629772 2.29775
head -0.368286 -0.286251 0.322186
rclavicle 2.51463e-014 6.36111e-015
rhumerus -35.4504 -16.9713 -79.2339
rradius 20.6719
rwrist 11.4586
rhand -18.1446 -4.82099
rfingers 7.12502
rthumb 8.13076 -34.6446
lclavicle 2.51463e-014 6.36111e-015
lhumerus -21.3496 -1.14424 89.4898
lradius 26.1435
lwrist 10.2032
lhand -17.4801 12.5248
lfingers 7.12502
lthumb 8.77206 42.3225
rfemur -43.7834 8.03451 18.6671
rtibia 30.0306
rfoot -23.3565 -11.5872
rtoes -1.15974
lfemur 20.6797 13.3697 -22.8401
ltibia 1.59028e-014
lfoot -17.4035 1.74058
ltoes -14.549
